<svg width="29" height="29" viewBox="0 0 29 29" fill="none" xmlns="http://www.w3.org/2000/svg">
<g clip-path="url(#clip0_12_457)">
<path d="M28.9998 13.5891C28.8246 10.7621 27.8259 8.0481 26.127 5.78172C24.428 3.51534 22.1031 1.79563 19.4386 0.834578C16.7742 -0.126473 13.8867 -0.286858 11.1322 0.373194C8.37775 1.03325 5.8766 2.48488 3.93711 4.54916C1.99761 6.61345 0.704555 9.20014 0.217321 11.9904C-0.269913 14.7806 0.0699758 17.6525 1.19509 20.2519C2.32021 22.8513 4.18137 25.0647 6.54915 26.6192C8.91693 28.1737 11.6878 29.0014 14.5203 29.0002H22.3539C24.1158 28.998 25.8049 28.2971 27.0508 27.0512C28.2966 25.8054 28.9975 24.1163 28.9998 22.3544V13.7027V13.5891ZM25.3748 22.3544C25.3748 23.1556 25.0565 23.9239 24.49 24.4904C23.9235 25.057 23.1551 25.3752 22.3539 25.3752H14.5203C12.9851 25.3743 11.4673 25.0498 10.0659 24.4229C8.66449 23.796 7.41096 22.8808 6.38702 21.7369C5.35855 20.5939 4.58637 19.2442 4.12226 17.7783C3.65815 16.3124 3.51283 14.7642 3.69606 13.2375C3.98517 10.8307 5.06682 8.58853 6.77059 6.8642C8.47437 5.13986 10.7034 4.03139 13.1066 3.71343C13.5767 3.65475 14.0501 3.62529 14.5239 3.62522C17.0568 3.61797 19.5115 4.50165 21.4586 6.12163C22.5936 7.06451 23.5259 8.22764 24.199 9.5408C24.872 10.854 25.272 12.2899 25.3748 13.7619V22.3544Z" fill="white"/>
<path d="M11.479 13.2915H15.104C15.5847 13.2915 16.0457 13.1005 16.3856 12.7606C16.7255 12.4207 16.9165 11.9597 16.9165 11.479C16.9165 10.9983 16.7255 10.5373 16.3856 10.1974C16.0457 9.85746 15.5847 9.6665 15.104 9.6665H11.479C10.9983 9.6665 10.5373 9.85746 10.1974 10.1974C9.85746 10.5373 9.6665 10.9983 9.6665 11.479C9.6665 11.9597 9.85746 12.4207 10.1974 12.7606C10.5373 13.1005 10.9983 13.2915 11.479 13.2915Z" fill="white"/>
<path d="M19.9373 15.7085H11.479C10.9983 15.7085 10.5373 15.8995 10.1974 16.2394C9.85746 16.5793 9.6665 17.0403 9.6665 17.521C9.6665 18.0017 9.85746 18.4627 10.1974 18.8026C10.5373 19.1425 10.9983 19.3335 11.479 19.3335H19.9373C20.418 19.3335 20.8791 19.1425 21.219 18.8026C21.5589 18.4627 21.7498 18.0017 21.7498 17.521C21.7498 17.0403 21.5589 16.5793 21.219 16.2394C20.8791 15.8995 20.418 15.7085 19.9373 15.7085Z" fill="white"/>
</g>
<defs>
<clipPath id="clip0_12_457">
<rect width="29" height="29" fill="white"/>
</clipPath>
</defs>
</svg>
