<svg width="32" height="32" viewBox="0 0 32 32" fill="none" xmlns="http://www.w3.org/2000/svg">
<g clip-path="url(#clip0_12_480)">
<path d="M11.1718 23.7501H5.0209C3.8219 23.7501 2.672 23.2738 1.82418 22.426C0.976363 21.5782 0.500062 20.4283 0.500062 19.2293V12.4248C0.494338 10.6411 0.885425 8.87854 1.64499 7.26469C2.40456 5.65083 3.51358 4.22613 4.89173 3.0938C6.19827 2.00966 7.73254 1.2342 9.3803 0.825171C11.0281 0.416138 12.7469 0.384066 14.4087 0.731341C16.7027 1.19279 18.8042 2.33507 20.439 4.00908C22.0739 5.6831 23.1661 7.81109 23.5731 10.1153C23.8752 11.741 23.8125 13.4135 23.3894 15.012C22.9663 16.6105 22.1935 18.0951 21.1267 19.3585C19.8876 20.7717 18.3547 21.897 16.6351 22.6556C14.9155 23.4142 13.0509 23.7878 11.1718 23.7501ZM12.0979 4.37513C10.3622 4.37156 8.68027 4.97776 7.3459 6.08788C6.41736 6.86257 5.67009 7.83153 5.15678 8.92644C4.64347 10.0213 4.37662 11.2155 4.37506 12.4248V19.2293C4.37506 19.4006 4.4431 19.5649 4.56422 19.686C4.68534 19.8071 4.84961 19.8751 5.0209 19.8751H11.1718C12.4863 19.9108 13.7928 19.6593 15.0002 19.1382C16.2075 18.617 17.2866 17.8388 18.1623 16.8578C18.8619 16.0248 19.3677 15.0468 19.6431 13.9944C19.9186 12.9421 19.9568 11.8417 19.7549 10.7728C19.471 9.24564 18.74 7.83723 17.6546 6.72609C16.5692 5.61494 15.1783 4.85111 13.6583 4.53142C13.1445 4.42879 12.6219 4.37645 12.0979 4.37513ZM27.5979 13.1352C27.1901 12.8077 26.7583 12.511 26.3063 12.2478C26.3012 13.7128 26.06 15.1674 25.592 16.5556C26.8861 17.8466 27.6169 19.5972 27.6251 21.4251V26.9793C27.6251 27.1506 27.557 27.3149 27.4359 27.436C27.3148 27.5571 27.1505 27.6251 26.9792 27.6251H21.9934C20.9772 27.6478 19.9666 27.4687 19.0202 27.0982C18.0737 26.7278 17.21 26.1732 16.4793 25.4668C15.1092 25.9222 13.6852 26.1953 12.2439 26.2792C12.5158 26.7432 12.8251 27.1843 13.1687 27.598C14.2664 28.8523 15.625 29.8514 17.1493 30.5254C18.6737 31.1995 20.327 31.5321 21.9934 31.5001H26.9792C28.1782 31.5001 29.3281 31.0238 30.1759 30.176C31.0238 29.3282 31.5001 28.1783 31.5001 26.9793V21.4251C31.5058 19.8412 31.1591 18.2759 30.4851 16.8425C29.8111 15.4091 28.8266 14.1437 27.6031 13.1378L27.5979 13.1352Z" fill="white"/>
</g>
<defs>
<clipPath id="clip0_12_480">
<rect width="31" height="31" fill="white" transform="translate(0.5 0.5)"/>
</clipPath>
</defs>
</svg>
