<svg width="32" height="31" viewBox="0 0 32 31" fill="none" xmlns="http://www.w3.org/2000/svg">
<g clip-path="url(#clip0_12_491)">
<path d="M16 0C12.4044 0.00444349 8.95727 1.43477 6.41477 3.97727C3.87227 6.51977 2.44194 9.96687 2.4375 13.5625C2.4375 17.2128 5.27917 22.3019 10.8863 28.6866C11.5257 29.4132 12.3126 29.9953 13.1946 30.394C14.0766 30.7927 15.0334 30.9989 16.0013 30.9989C16.9692 30.9989 17.926 30.7927 18.808 30.394C19.69 29.9953 20.4769 29.4132 21.1163 28.6866C26.7208 22.3032 29.5625 17.214 29.5625 13.5625C29.5581 9.96687 28.1277 6.51977 25.5852 3.97727C23.0427 1.43477 19.5956 0.00444349 16 0ZM18.2036 26.1317C17.9219 26.4345 17.5809 26.676 17.2018 26.8411C16.8226 27.0062 16.4135 27.0915 16 27.0915C15.5865 27.0915 15.1774 27.0062 14.7982 26.8411C14.4191 26.676 14.0781 26.4345 13.7964 26.1317C9.03921 20.7132 6.30475 16.1316 6.30475 13.5638C6.30475 10.9945 7.32539 8.53045 9.14215 6.7137C10.9589 4.89694 13.423 3.87629 15.9923 3.87629C18.5615 3.87629 21.0256 4.89694 22.8423 6.7137C24.6591 8.53045 25.6797 10.9945 25.6797 13.5638C25.6875 16.1316 22.9608 20.7132 18.2036 26.1317Z" fill="white"/>
<path d="M15.9998 7.8208C14.8852 7.8208 13.7956 8.15132 12.8689 8.77056C11.9421 9.3898 11.2198 10.27 10.7932 11.2997C10.3667 12.3295 10.2551 13.4626 10.4725 14.5558C10.69 15.649 11.2267 16.6531 12.0149 17.4413C12.803 18.2294 13.8072 18.7661 14.9004 18.9836C15.9935 19.201 17.1267 19.0894 18.1564 18.6629C19.1862 18.2364 20.0663 17.514 20.6856 16.5873C21.3048 15.6605 21.6353 14.5709 21.6353 13.4563C21.6336 11.9622 21.0393 10.5298 19.9828 9.4733C18.9263 8.4168 17.4939 7.82251 15.9998 7.8208ZM15.9998 15.2169C15.6516 15.2169 15.3112 15.1136 15.0217 14.9202C14.7322 14.7267 14.5065 14.4518 14.3733 14.1301C14.24 13.8084 14.2052 13.4544 14.2731 13.1129C14.341 12.7714 14.5087 12.4577 14.7549 12.2115C15.0011 11.9652 15.3148 11.7976 15.6563 11.7296C15.9978 11.6617 16.3518 11.6966 16.6735 11.8298C16.9952 11.9631 17.2702 12.1887 17.4636 12.4782C17.6571 12.7678 17.7603 13.1081 17.7603 13.4563C17.76 13.9232 17.5744 14.3708 17.2443 14.7009C16.9142 15.0309 16.4666 15.2165 15.9998 15.2169Z" fill="white"/>
</g>
<defs>
<clipPath id="clip0_12_491">
<rect width="31" height="31" fill="white" transform="translate(0.5)"/>
</clipPath>
</defs>
</svg>
