<svg width="33" height="33" viewBox="0 0 33 33" fill="none" xmlns="http://www.w3.org/2000/svg">
<g clip-path="url(#clip0_12_469)">
<path d="M23.8333 32.5C12.968 32.8053 -6.26665 13.5493 2.98268 3.084C3.01602 3.052 4.43868 1.812 4.43868 1.812C5.33157 0.986592 6.5056 0.532719 7.72151 0.542876C8.93743 0.553033 10.1037 1.02646 10.9827 1.86667L13.852 4.95733C14.6972 5.84064 15.1646 7.01873 15.1549 8.24122C15.1452 9.46372 14.6591 10.6342 13.8 11.504L13.2827 12.0293C14.8234 15.4412 17.5493 18.1784 20.9547 19.7333L21.5027 19.2C22.3915 18.3535 23.5719 17.8813 24.7994 17.8813C26.0268 17.8813 27.2072 18.3535 28.096 19.2L31.0787 21.9667C31.9622 22.8297 32.4693 24.0066 32.4897 25.2415C32.5102 26.4764 32.0424 27.6695 31.188 28.5613C31.188 28.5613 29.948 29.9827 29.916 30.016C29.117 30.812 28.1679 31.4415 27.1238 31.8679C26.0796 32.2943 24.9612 32.5092 23.8333 32.5ZM5.76668 5.96667C-0.711985 13.9907 20.0254 33.5307 27.04 27.2333C27.04 27.2333 28.272 25.8213 28.3053 25.7893C28.4303 25.6643 28.5005 25.4948 28.5005 25.318C28.5005 25.1412 28.4303 24.9717 28.3053 24.8467L25.3213 22.0813C24.9213 21.748 24.696 21.744 24.3253 22.028L22.8107 23.5187C22.5375 23.7874 22.1928 23.972 21.8176 24.0505C21.4425 24.129 21.0527 24.098 20.6947 23.9613C18.0342 22.9713 15.6176 21.4208 13.6089 19.415C11.6001 17.4093 10.046 14.995 9.05202 12.336C8.90734 11.9751 8.87103 11.5798 8.94752 11.1985C9.024 10.8172 9.20998 10.4665 9.48268 10.1893L10.96 8.688C11.0273 8.62824 11.0814 8.55509 11.1187 8.47324C11.1561 8.39139 11.176 8.30263 11.1772 8.21265C11.1783 8.12267 11.1606 8.03344 11.1253 7.95068C11.09 7.86791 11.0378 7.79343 10.972 7.732L8.10002 4.64133C7.97293 4.53513 7.81008 4.4815 7.64476 4.49142C7.47944 4.50133 7.32416 4.57404 7.21068 4.69467C7.17868 4.728 5.76668 5.96667 5.76668 5.96667ZM32.5 13.1667C32.4961 9.80845 31.1604 6.58889 28.7857 4.21427C26.4111 1.83965 23.1916 0.503882 19.8333 0.5C19.3029 0.5 18.7942 0.710714 18.4191 1.08579C18.0441 1.46086 17.8333 1.96957 17.8333 2.5C17.8333 3.03043 18.0441 3.53914 18.4191 3.91421C18.7942 4.28929 19.3029 4.5 19.8333 4.5C22.131 4.50282 24.3338 5.41682 25.9585 7.04153C27.5832 8.66623 28.4972 10.869 28.5 13.1667C28.5 13.6971 28.7107 14.2058 29.0858 14.5809C29.4609 14.956 29.9696 15.1667 30.5 15.1667C31.0304 15.1667 31.5392 14.956 31.9142 14.5809C32.2893 14.2058 32.5 13.6971 32.5 13.1667ZM25.8333 13.1667C25.8316 11.5759 25.1989 10.0508 24.074 8.92598C22.9492 7.80114 21.4241 7.16843 19.8333 7.16667C19.3029 7.16667 18.7942 7.37738 18.4191 7.75245C18.0441 8.12753 17.8333 8.63623 17.8333 9.16667C17.8333 9.6971 18.0441 10.2058 18.4191 10.5809C18.7942 10.956 19.3029 11.1667 19.8333 11.1667C20.3638 11.1667 20.8725 11.3774 21.2476 11.7525C21.6226 12.1275 21.8333 12.6362 21.8333 13.1667C21.8333 13.6971 22.0441 14.2058 22.4191 14.5809C22.7942 14.956 23.3029 15.1667 23.8333 15.1667C24.3638 15.1667 24.8725 14.956 25.2476 14.5809C25.6226 14.2058 25.8333 13.6971 25.8333 13.1667Z" fill="white"/>
</g>
<defs>
<clipPath id="clip0_12_469">
<rect width="32" height="32" fill="white" transform="translate(0.5 0.5)"/>
</clipPath>
</defs>
</svg>
